<svg width="64" height="64" viewBox="0 0 64 64" fill="none" xmlns="http://www.w3.org/2000/svg">
<path fill-rule="evenodd" clip-rule="evenodd" d="M12 10C12 7.34784 13.0536 4.8043 14.9289 2.92893C16.8043 1.05357 19.3478 0 22 0C24.6522 0 27.1957 1.05357 29.0711 2.92893C30.9464 4.8043 32 7.34784 32 10C32 7.34784 33.0536 4.8043 34.9289 2.92893C36.8043 1.05357 39.3478 0 42 0C44.6522 0 47.1957 1.05357 49.0711 2.92893C50.9464 4.8043 52 7.34784 52 10V10.024C52 10.304 52 11.104 51.848 12H60C61.0609 12 62.0783 12.4214 62.8284 13.1716C63.5786 13.9217 64 14.9391 64 16V24C64 25.0609 63.5786 26.0783 62.8284 26.8284C62.0783 27.5786 61.0609 28 60 28V58C60 59.5913 59.3679 61.1174 58.2426 62.2426C57.1174 63.3679 55.5913 64 54 64H10C8.4087 64 6.88258 63.3679 5.75736 62.2426C4.63214 61.1174 4 59.5913 4 58V28C2.93913 28 1.92172 27.5786 1.17157 26.8284C0.421427 26.0783 0 25.0609 0 24V16C0 14.9391 0.421427 13.9217 1.17157 13.1716C1.92172 12.4214 2.93913 12 4 12H12.152C12.0463 11.3467 11.9955 10.6858 12 10.024V10ZM16.272 12H28V10C28 9.21207 27.8448 8.43185 27.5433 7.7039C27.2417 6.97595 26.7998 6.31451 26.2426 5.75736C25.6855 5.20021 25.0241 4.75825 24.2961 4.45672C23.5681 4.15519 22.7879 4 22 4C21.2121 4 20.4319 4.15519 19.7039 4.45672C18.9759 4.75825 18.3145 5.20021 17.7574 5.75736C17.2002 6.31451 16.7583 6.97595 16.4567 7.7039C16.1552 8.43185 16 9.21207 16 10C16 10.34 16.008 11.096 16.18 11.72C16.204 11.8154 16.2348 11.9089 16.272 12ZM36 12H47.728C47.7648 11.9088 47.7955 11.8153 47.82 11.72C47.992 11.096 48 10.34 48 10C48 8.4087 47.3679 6.88258 46.2426 5.75736C45.1174 4.63214 43.5913 4 42 4C40.4087 4 38.8826 4.63214 37.7574 5.75736C36.6321 6.88258 36 8.4087 36 10V12ZM4 16V24H28V16H4ZM36 16V24H60V16H36ZM56 28H36V60H54C54.5304 60 55.0391 59.7893 55.4142 59.4142C55.7893 59.0391 56 58.5304 56 58V28ZM28 60V28H8V58C8 58.5304 8.21071 59.0391 8.58579 59.4142C8.96086 59.7893 9.46957 60 10 60H28Z" fill="currentColor"/>
</svg>
