<svg width="50" height="50" viewBox="0 0 50 50" fill="none" xmlns="http://www.w3.org/2000/svg">
<path d="M0 25C0 11.1929 11.1929 0 25 0C38.8071 0 50 11.1929 50 25C50 38.8071 38.8071 50 25 50C11.1929 50 0 38.8071 0 25Z" fill="#E7F0FF"/>
<path d="M24.3333 29.6667C25.0693 29.6667 25.6666 29.0707 25.6666 28.3333C25.6666 27.596 25.0693 27 24.3333 27C23.5973 27 22.9999 27.596 22.9999 28.3333C22.9999 29.0707 23.5973 29.6667 24.3333 29.6667ZM24.3333 29.6667V32.3333M30.9999 36.3333H17.6666C16.9306 36.3333 16.3333 35.7373 16.3333 35V24.3333C16.3333 23.596 16.9306 23 17.6666 23H30.9999C31.7359 23 32.3333 23.596 32.3333 24.3333V35C32.3333 35.7373 31.7359 36.3333 30.9999 36.3333ZM24.3333 12.3333C21.3879 12.3333 18.9999 14.7213 18.9999 17.6667V23H29.6666V17.6667C29.6666 14.7213 27.2786 12.3333 24.3333 12.3333Z" stroke="#0140F8" stroke-linecap="round" stroke-linejoin="round"/>
</svg>
