<svg width="247" height="50" viewBox="0 0 247 50" fill="none" xmlns="http://www.w3.org/2000/svg">
<g clip-path="url(#clip0_309_432)">
<path d="M135.9 6.79197L140.239 25.373L154.436 6.66797L142.992 14.8145L135.9 6.79197Z" fill="#FF0016"/>
<path d="M141.88 26.5769H149.097L153.15 11.4499L141.88 26.5769ZM130.726 26.5769H138.224L134.778 11.4499L130.726 26.5769ZM239.896 18.9318C239.62 19.981 238.817 22.3396 236.303 22.3396C234.811 22.3396 234.169 20.8515 234.698 18.8516C235.38 16.2758 237.074 15.4147 238.125 15.3586C239.71 15.2746 240.512 16.5862 239.896 18.9318ZM240.991 10.9507C240.119 10.9507 237.557 11.2597 235.651 13.6538H235.569L236.183 11.3615H230.986L225.562 31.6105H231.498L233.291 24.9181C233.898 26.2479 235.02 26.9876 236.475 26.9876C237.757 26.9876 243.509 26.5767 245.757 18.8514C246.351 16.8098 246.954 10.9507 240.991 10.9507ZM106.181 18.9318C105.905 19.981 105.102 22.3396 102.588 22.3396C101.096 22.3396 100.454 20.8515 100.983 18.8516C101.665 16.2758 103.359 15.4147 104.41 15.3586C105.995 15.2746 106.797 16.5862 106.181 18.9318ZM107.276 10.9507C106.404 10.9507 103.842 11.2597 101.936 13.6538H101.854L102.467 11.3615H97.2708L91.8468 31.6105H97.7828L99.5748 24.9181C100.183 26.2479 101.305 26.9876 102.759 26.9876C104.042 26.9876 109.794 26.5767 112.042 18.8514C112.635 16.8098 113.239 10.9507 107.276 10.9507ZM160.792 23.6417C159.505 23.6417 158.958 23.2218 159.152 22.4252C159.307 21.9242 159.552 21.512 159.961 21.2527C160.781 20.7333 162.491 20.6478 164.507 19.9558C164.319 21.0437 163.641 23.6417 160.792 23.6417ZM169.215 11.4547C168.253 11.1141 166.917 10.951 165.133 10.951C163.698 10.951 156.926 10.951 155.754 16.1041H161.488C161.951 15.2082 162.56 14.5532 163.954 14.5532C165.476 14.5532 165.783 15.3224 165.611 15.8783C165.426 16.4758 164.7 16.9195 163.585 17.1073C161.565 17.4481 158.601 17.8524 157.781 18.0726C154.812 18.8694 153.547 20.8646 153.126 22.5108C152.475 25.0603 154.033 26.9881 157.157 26.9881C159.596 26.9881 160.806 26.5772 163.15 24.9413L163.01 26.574H169.368L169.405 26.3225C168.981 25.9141 168.919 25.2678 169.12 24.394L171.028 17.275C171.263 16.3546 171.457 15.5538 171.521 14.7207C171.641 13.1732 171.194 12.1557 169.215 11.4547ZM218.995 14.6644C220.744 14.6644 221.134 16.6347 220.845 17.3583H215.57C215.917 15.892 216.942 14.6644 218.995 14.6644ZM216.845 23.3044C214.705 23.3044 214.381 21.4025 214.751 20.3718H225.809C226.545 17.6108 226.461 15.3074 225.39 13.5893C224.358 11.8736 222.432 10.951 219.644 10.951C214.434 10.951 210.379 14.8928 209.317 18.8803C207.568 25.4469 212.49 26.9881 215.541 26.9881C221.226 26.9881 223.862 24.1867 224.966 22.0051H219.354C219.112 22.3836 218.334 23.3044 216.845 23.3044ZM193.564 11.3614L192.394 15.7268L197.422 15.7273L194.515 26.5773H200.451L203.358 15.7273L208.396 15.7268L209.565 11.3614H193.564ZM115.7 11.3614L114.53 15.7268L119.558 15.7273L116.651 26.5773H122.587L125.494 15.7273L130.532 15.7268L131.702 11.3614H115.7ZM54.4508 26.5764H60.3868L63.2938 15.7264H67.9068L64.9998 26.5764H70.9348L75.0118 11.3614H58.5278L54.4508 26.5764ZM86.9768 18.9345C86.6408 20.2258 85.5888 23.0499 83.0238 23.0499C80.4678 23.0499 80.9478 20.2258 81.2828 18.9345C81.6058 17.6918 82.6048 14.8601 85.1978 14.8601C87.7838 14.8601 87.3008 17.6918 86.9768 18.9345ZM86.2048 10.9502C78.6038 10.9502 76.2498 16.7326 75.6738 18.9345C75.0858 21.1778 74.4778 26.9873 82.0168 26.9873C89.4558 26.9873 91.9998 21.1888 92.5888 18.9345C93.1618 16.7427 93.7748 10.9502 86.2048 10.9502ZM188.975 12.3256C187.692 11.4132 185.991 10.9502 184.035 10.9502C178.269 10.9502 174.661 14.8341 173.526 19.0717C172.847 21.6052 173.154 23.5699 174.428 24.9456C175.62 26.2361 177.378 26.9873 179.835 26.9873C183.116 26.9873 188.005 25.4855 189.631 20.6143H183.8C182.981 22.5591 181.746 22.906 180.887 22.906C179.035 22.906 178.589 21.0954 179.469 18.5539C180.444 15.7366 181.483 14.9486 182.985 14.9486C184.533 14.9486 184.726 16.2167 184.525 17.1144H190.481C190.731 14.9486 190.269 13.2465 188.975 12.3256ZM52.2748 12.3256C50.9918 11.4132 49.2908 10.9502 47.3348 10.9502C41.5698 10.9502 37.9608 14.8341 36.8258 19.0717C36.1468 21.6052 36.4548 23.5699 37.7278 24.9456C38.9208 26.2361 40.6778 26.9873 43.1358 26.9873C46.4158 26.9873 51.3048 25.4855 52.9318 20.6143H47.0998C46.2818 22.5591 45.0458 22.906 44.1878 22.906C42.3348 22.906 41.8888 21.0954 42.7688 18.5539C43.7438 15.7366 44.7828 14.9486 46.2858 14.9486C47.8328 14.9486 48.0258 16.2167 47.8248 17.1144H53.7808C54.0318 14.9486 53.5698 13.2465 52.2748 12.3256Z" fill="#1551E5"/>
<path d="M23.3125 33.1199H6.7235C3.3205 33.1199 0.5625 30.3619 0.5625 26.9599V10.3709C0.5625 6.96894 3.3205 4.21094 6.7235 4.21094H23.3125C26.7145 4.21094 29.4725 6.96894 29.4725 10.3709V26.9599C29.4725 30.3619 26.7145 33.1199 23.3125 33.1199Z" fill="#1551E5"/>
<path d="M22.3647 13.4316L16.6207 19.9532L3.8457 13.4809L15.9267 16.0336L22.3647 13.4316Z" fill="#FF0016"/>
<path d="M15.6917 15.0905C16.8057 15.0905 17.7087 14.1875 17.7087 13.0736C17.7087 11.9596 16.8057 11.0566 15.6917 11.0566C14.5777 11.0566 13.6747 11.9596 13.6747 13.0736C13.6747 14.1875 14.5777 15.0905 15.6917 15.0905ZM11.7367 18.635L5.01172 26.2721L12.5657 23.2322L26.7097 26.2053L11.7367 18.635Z" fill="white"/>
<path d="M117.354 31.8428H221L216.646 49.8428H113L117.354 31.8428Z" fill="#FF0016"/>
<path d="M123.685 44.8428L125.86 36.7278H133.78L131.605 44.8428H128.755L130.315 39.0228H128.095L126.535 44.8428H123.685ZM136.12 45.0078C135.45 45.0078 134.905 44.8078 134.485 44.4078C134.065 44.0078 133.855 43.4728 133.855 42.8028C133.855 41.9228 134.18 41.2278 134.83 40.7178C135.48 40.1978 136.345 39.9378 137.425 39.9378C138.105 39.9378 138.79 40.0428 139.48 40.2528L139.51 40.1478C139.56 39.9278 139.585 39.7628 139.585 39.6528C139.585 39.0728 139.12 38.7828 138.19 38.7828C137.41 38.7828 136.68 38.9178 136 39.1878L135.595 37.1178C136.535 36.7878 137.6 36.6228 138.79 36.6228C139.99 36.6228 140.89 36.8478 141.49 37.2978C142.1 37.7478 142.405 38.3828 142.405 39.2028C142.405 39.5628 142.35 39.9528 142.24 40.3728L141.04 44.8428H138.235L138.46 43.9728C137.72 44.6628 136.94 45.0078 136.12 45.0078ZM137.44 43.2528C137.8 43.2528 138.14 43.1128 138.46 42.8328C138.78 42.5528 138.995 42.2028 139.105 41.7828L139.18 41.5128C138.82 41.3928 138.465 41.3328 138.115 41.3328C137.665 41.3328 137.305 41.4378 137.035 41.6478C136.765 41.8578 136.63 42.1428 136.63 42.5028C136.63 42.7328 136.705 42.9178 136.855 43.0578C137.005 43.1878 137.2 43.2528 137.44 43.2528ZM142.28 47.2428L145.1 36.7278H147.95L147.71 37.5828C148.42 36.8928 149.19 36.5478 150.02 36.5478C150.85 36.5478 151.535 36.8478 152.075 37.4478C152.625 38.0478 152.9 38.8578 152.9 39.8778C152.9 41.3178 152.465 42.5378 151.595 43.5378C150.735 44.5278 149.715 45.0228 148.535 45.0228C147.455 45.0228 146.635 44.5928 146.075 43.7328L145.13 47.2428H142.28ZM148.04 42.6528C148.58 42.6528 149.045 42.4278 149.435 41.9778C149.825 41.5178 150.02 40.9678 150.02 40.3278C150.02 39.8978 149.89 39.5528 149.63 39.2928C149.38 39.0328 149.05 38.9028 148.64 38.9028C148.1 38.9028 147.63 39.1328 147.23 39.5928C146.83 40.0528 146.63 40.5928 146.63 41.2128C146.63 41.6428 146.76 41.9928 147.02 42.2628C147.28 42.5228 147.62 42.6528 148.04 42.6528ZM154.829 44.8428L156.389 39.0228H153.944L154.559 36.7278H162.149L161.534 39.0228H159.239L157.679 44.8428H154.829ZM161.286 44.8428L163.461 36.7278H166.311L165.531 39.6078H167.871L168.651 36.7278H171.501L169.326 44.8428H166.476L167.256 41.9028H164.916L164.136 44.8428H161.286ZM175.848 45.0378C174.658 45.0378 173.713 44.7128 173.013 44.0628C172.323 43.4128 171.978 42.5378 171.978 41.4378C171.978 40.1678 172.433 39.0378 173.343 38.0478C174.253 37.0478 175.423 36.5478 176.853 36.5478C177.983 36.5478 178.838 36.8728 179.418 37.5228C180.008 38.1628 180.303 38.9578 180.303 39.9078C180.303 40.4478 180.198 41.0028 179.988 41.5728H174.603C174.673 42.4628 175.178 42.9078 176.118 42.9078C176.678 42.9078 177.253 42.6928 177.843 42.2628L179.163 43.8228C178.233 44.6328 177.128 45.0378 175.848 45.0378ZM174.798 40.1178H177.693C177.743 39.9678 177.768 39.8228 177.768 39.6828C177.768 39.3828 177.673 39.1378 177.483 38.9478C177.293 38.7478 177.018 38.6478 176.658 38.6478C176.258 38.6478 175.888 38.7778 175.548 39.0378C175.218 39.2878 174.968 39.6478 174.798 40.1178ZM180.056 47.2428L182.876 36.7278H185.726L185.486 37.5828C186.196 36.8928 186.966 36.5478 187.796 36.5478C188.626 36.5478 189.311 36.8478 189.851 37.4478C190.401 38.0478 190.676 38.8578 190.676 39.8778C190.676 41.3178 190.241 42.5378 189.371 43.5378C188.511 44.5278 187.491 45.0228 186.311 45.0228C185.231 45.0228 184.411 44.5928 183.851 43.7328L182.906 47.2428H180.056ZM185.816 42.6528C186.356 42.6528 186.821 42.4278 187.211 41.9778C187.601 41.5178 187.796 40.9678 187.796 40.3278C187.796 39.8978 187.666 39.5528 187.406 39.2928C187.156 39.0328 186.826 38.9028 186.416 38.9028C185.876 38.9028 185.406 39.1328 185.006 39.5928C184.606 40.0528 184.406 40.5928 184.406 41.2128C184.406 41.6428 184.536 41.9928 184.796 42.2628C185.056 42.5228 185.396 42.6528 185.816 42.6528ZM193.825 45.0078C193.155 45.0078 192.61 44.8078 192.19 44.4078C191.77 44.0078 191.56 43.4728 191.56 42.8028C191.56 41.9228 191.885 41.2278 192.535 40.7178C193.185 40.1978 194.05 39.9378 195.13 39.9378C195.81 39.9378 196.495 40.0428 197.185 40.2528L197.215 40.1478C197.265 39.9278 197.29 39.7628 197.29 39.6528C197.29 39.0728 196.825 38.7828 195.895 38.7828C195.115 38.7828 194.385 38.9178 193.705 39.1878L193.3 37.1178C194.24 36.7878 195.305 36.6228 196.495 36.6228C197.695 36.6228 198.595 36.8478 199.195 37.2978C199.805 37.7478 200.11 38.3828 200.11 39.2028C200.11 39.5628 200.055 39.9528 199.945 40.3728L198.745 44.8428H195.94L196.165 43.9728C195.425 44.6628 194.645 45.0078 193.825 45.0078ZM195.145 43.2528C195.505 43.2528 195.845 43.1128 196.165 42.8328C196.485 42.5528 196.7 42.2028 196.81 41.7828L196.885 41.5128C196.525 41.3928 196.17 41.3328 195.82 41.3328C195.37 41.3328 195.01 41.4378 194.74 41.6478C194.47 41.8578 194.335 42.1428 194.335 42.5028C194.335 42.7328 194.41 42.9178 194.56 43.0578C194.71 43.1878 194.905 43.2528 195.145 43.2528ZM200.63 44.8428L202.805 36.7278H205.46L206.675 39.5328L209.225 36.7278H212.36L210.185 44.8428H207.335L208.4 40.8378L205.685 43.5978L204.485 40.8978L203.435 44.8428H200.63Z" fill="white"/>
</g>
<defs>
<clipPath id="clip0_309_432">
<rect width="247" height="49" fill="white" transform="translate(0 0.5)"/>
</clipPath>
</defs>
</svg>
