<svg xmlns="http://www.w3.org/2000/svg" width="129" height="22" viewBox="0 0 129 22" fill="none">
  <path d="M22.88 11c0 4.132-2.277 7.731-5.646 9.612V3.666H6.854v8.595c0 1.195 0 2.398-2.27 2.398h-3.08A11 11 0 0 1 .881 11c0-6.075 4.924-11 11-11s11 4.925 11 11" fill="#121A26"/>
  <path d="M14.325 6.087v15.64c-.786.179-1.604.273-2.444.273a10.99 10.99 0 0 1-9.14-4.877H5.77c4.034 0 4.064-2.463 4.046-3.666-.006-.404-.006-.459-.006-.535 0-.075 0-.172-.006-.66V6.087zM32.432 4.79h7.65v10.346h-2.031v-8.52h-3.566v3.088c0 .601-.021 1.12-.062 1.576a8 8 0 0 1-.27 1.451c-.145.518-.332.933-.56 1.265s-.56.601-.974.83c-.415.227-.912.33-1.493.33h-.912v-1.865h.601c.373 0 .664-.104.892-.29q.342-.312.497-.871.156-.591.187-1.057c.02-.311.041-.726.041-1.224zm19.281 10.346h-2.032V7.86l-5.141 7.277h-2.032V4.791h2.032v7.277l5.12-7.277h2.033v10.345zM55.134 4.79h7.65v8.522h1.41v4.105h-1.99v-2.28h-7.09v2.28h-1.99v-4.105h.994c.684-.767 1.016-2.053 1.016-3.877zm2.053 1.825v2.799c0 1.659-.228 2.944-.664 3.898h4.23V6.615zm17.663 8.521h-2.03v-8.52h-4.852v8.52h-2.031V4.791h8.915zm10.865-1.368q-1.524 1.554-3.857 1.555-2.362 0-3.856-1.555c-1.016-1.037-1.513-2.302-1.513-3.815s.497-2.799 1.513-3.815q1.524-1.554 3.856-1.555 2.364 0 3.856 1.555c1.016 1.037 1.514 2.302 1.514 3.815 0 1.514-.498 2.778-1.513 3.815m-6.241-1.286c.643.684 1.43 1.037 2.384 1.037s1.742-.353 2.385-1.037.953-1.534.953-2.508c0-.995-.31-1.845-.953-2.53s-1.431-1.036-2.385-1.036-1.741.352-2.384 1.036c-.643.685-.954 1.535-.954 2.53 0 .974.311 1.803.954 2.508m18.079-4.519c0 .933-.311 1.679-.913 2.28-.6.601-1.492.912-2.674.912h-3.068v3.981h-2.032V4.791h5.1c1.182 0 2.073.31 2.674.912.602.601.913 1.347.913 2.26m-6.656-1.348v2.737h2.924c.518 0 .933-.125 1.223-.373.311-.25.456-.58.456-.996q0-.621-.435-.995-.435-.373-1.244-.373zM98.88 4.79h8.79v1.825h-3.359v8.521h-2.031v-8.52H98.9V4.79zm14.533 0 4.499 10.346h-2.156l-1.016-2.28h-4.727l-1.016 2.28h-2.094l4.52-10.345zm-1.037 2.717-1.555 3.524h3.11zm8.397-2.717h7.65v10.346h-2.032v-8.52h-3.566v3.088c0 .601-.02 1.12-.062 1.576a8 8 0 0 1-.269 1.451c-.145.518-.332.933-.56 1.265s-.56.601-.975.83c-.414.227-.912.33-1.492.33h-.912v-1.865h.601c.373 0 .663-.104.891-.29q.342-.312.498-.871a5.7 5.7 0 0 0 .186-1.057c.021-.311.042-.726.042-1.224z" fill="#121A26"/>
</svg>
