<svg xmlns="http://www.w3.org/2000/svg" width="155" height="20" viewBox="0 0 155 20" fill="none">
  <path fill-rule="evenodd" clip-rule="evenodd" d="m16.617 12.48 7.514-8.468-8.4 3.365L0 3.994z" fill="#FF0016"/>
  <path fill-rule="evenodd" clip-rule="evenodd" d="m.307 19.99 9.86-3.968L28.592 20 9.11 9.967zM14.732.706a2.62 2.62 0 0 0-2.404 2.806c.106 1.428 1.378 2.513 2.809 2.406a2.634 2.634 0 0 0 2.427-2.802c-.13-1.458-1.376-2.537-2.832-2.41m122.911 11.612a2.01 2.01 0 0 1-1.691.867c-.559 0-.949-.167-1.196-.532-.282-.392-.331-.836-.168-1.426h7.385c.529-1.844.499-3.382-.193-4.53-.667-1.145-1.943-1.761-3.806-1.761-.331 0-.663.033-.994.085-1.166.18-2.279.645-3.307 1.396-1.354.986-2.284 2.29-2.778 4.057-.45 1.616-.228 2.888.588 3.801.801.905 1.938 1.37 3.55 1.37.637 0 1.305-.058 1.947-.196a8.4 8.4 0 0 0 1.577-.504c1.172-.5 2.111-1.37 2.833-2.627zm-.663-4.864q.246-.049.514-.039c.5.018.806.212 1.009.541.212.343.331.754.193 1.257h-3.52c.247-.978.885-1.581 1.804-1.76m-29.93-2.196c-.639-.222-1.528-.336-2.719-.336-.863 0-1.639.094-2.333.225a7.8 7.8 0 0 0-2.058.669c-1.023.585-1.634 1.452-1.94 2.54h3.83c.055-.083.106-.184.167-.28.115-.185.389-.48.639-.586a2.2 2.2 0 0 1 .861-.166c.308 0 .53.043.805.166.23.106.384.414.285.717-.132.4-.622.693-1.37.818-1.353.228-3.308.491-3.858.643a6 6 0 0 0-1.332.559c-.385.229-.753.53-1.085.918-.332.39-.578.869-.748 1.483-.271.975-.084 1.698.472 2.23q.79.757 2.165.756c.75 0 1.416-.058 2.025-.278.392-.113.752-.31 1.141-.53.277-.169.553-.337.863-.558l-.115 1.088h4.019s-.242-.182-.11-.718l1.532-5.481c.169-.614.299-1.147.363-1.702.053-.477 0-.921-.225-1.313-.221-.36-.636-.643-1.275-.864m-4.026 7.425a2.3 2.3 0 0 1-1.026.613 2.8 2.8 0 0 1-.696.085c-.86 0-1.22-.28-1.08-.81.109-.335.275-.615.554-.783.23-.146.616-.262.833-.307.214-.046.834-.165 1.053-.222.415-.114.754-.222 1.169-.334-.141.726-.389 1.254-.807 1.758m11.926-.272a1.74 1.74 0 0 1-1.247.502c-.583 0-.93-.228-1.085-.697-.15-.451-.152-1.216.194-2.21.096-.274.427-1.084.699-1.457.201-.272.469-.54.721-.7.275-.172.607-.252.97-.252.441 0 .674.138.887.406.188.238.195.622.111 1.04h3.97c.196-1.446-.091-2.582-.943-3.198-.844-.61-1.972-.918-3.276-.918-1.668 0-3.062.445-4.385 1.419-1.287.945-2.23 2.278-2.721 4.006-.483 1.693-.304 3.006.526 3.923.78.862 1.942 1.365 3.58 1.365a8 8 0 0 0 3.86-1.005 6 6 0 0 0 1.609-1.277c.479-.551.834-1.198 1.14-1.975h-3.887a3.1 3.1 0 0 1-.723 1.028M57.754 6.559c-.627-1.035-1.889-1.6-3.858-1.6-.5 0-.97.035-1.444.12-1.274.232-2.39.732-3.276 1.48a7.4 7.4 0 0 0-2.415 3.75c-.42 1.499-.299 2.73.304 3.721.648 1.063 1.887 1.641 3.832 1.641.556 0 1.083-.023 1.555-.113a6.8 6.8 0 0 0 3.194-1.528c1.174-.994 1.993-2.215 2.415-3.721.409-1.465.313-2.73-.307-3.75m-3.443 3.75c-.242.863-.587 1.494-1.053 2-.254.275-.791.75-1.64.75-.583 0-1.006-.218-1.192-.75-.175-.498-.158-1.137.083-2 .23-.832.56-1.492 1.053-2.027.268-.29.579-.49.89-.585.219-.068.472-.11.722-.11.581 0 1.051.213 1.221.695.193.547.15 1.195-.084 2.027M71.22 8.087h3.016l-2.033 7.251h3.83l2.061-7.251h2.817l.806-2.919h-9.664zm49.959 0h3.016l-2.032 7.251h3.829l2.061-7.251h2.818l.806-2.919h-9.665zM36.478 5.168 33.61 15.339h3.86l2.036-7.252h3.082l-2.038 7.252h3.916l2.87-10.171zm-7.254 7.252c-.332.337-.747.501-1.247.501-.583 0-.93-.227-1.083-.695-.152-.451-.153-1.215.192-2.207.095-.274.427-1.082.7-1.455.2-.272.469-.54.722-.7.273-.172.606-.25.968-.25.443 0 .675.138.888.405.189.237.195.621.112 1.039h3.968c.196-1.444-.09-2.579-.943-3.194-.843-.608-1.971-.918-3.275-.918-1.668 0-3.083.42-4.388 1.418-1.304.918-2.228 2.275-2.72 4-.481 1.69-.303 3 .528 3.917.78.86 1.942 1.363 3.58 1.363a8 8 0 0 0 3.859-1.003 6.1 6.1 0 0 0 1.61-1.277c.472-.554.833-1.194 1.14-1.97h-3.887a2.9 2.9 0 0 1-.724 1.026" fill="#1551E5"/>
  <path fill-rule="evenodd" clip-rule="evenodd" d="M89.7 6.278 84.357.098l3.07 14.312L98.628 0z" fill="#FF0016"/>
  <path fill-rule="evenodd" clip-rule="evenodd" d="m83.94 3.686-3.328 11.653h5.76zm13.262 0-8.896 11.653h5.567zm54.326 1.237c-.583 0-1.192.141-1.859.417-.251.11-.475.244-.694.39-.324.218-.722.612-1.027.972h-.056l.419-1.534h-3.472l-3.701 13.16h3.917l1.153-4.096c.389.887 1.128 1.304 2.101 1.304.223 0 .446-.001.666-.029.972-.117 1.945-.5 2.945-1.224.554-.417 1.079-.97 1.551-1.663.447-.615.807-1.475 1.141-2.445.387-1.416.361-2.67-.112-3.697-.472-1.03-1.443-1.555-2.972-1.555m-.832 5.306c-.198.701-.505 1.283-.915 1.694a2 2 0 0 1-.806.471 2.3 2.3 0 0 1-.722.113c-.556 0-.775-.192-.999-.638s-.228-1.002-.029-1.694c.273-.952.672-1.43.973-1.695.214-.189.657-.602 1.361-.639 1.058-.056 1.577.82 1.137 2.388M67.01 4.923c-.581 0-1.191.141-1.857.417a4.5 4.5 0 0 0-.695.39c-.324.218-.722.612-1.027.972h-.055l.418-1.534h-3.471l-3.701 13.16h3.916l1.154-4.096c.388.887 1.128 1.304 2.1 1.304.223 0 .447-.001.666-.029.972-.117 1.945-.5 2.945-1.224a7 7 0 0 0 1.552-1.663c.447-.615.807-1.475 1.14-2.445.387-1.416.361-2.67-.111-3.697-.473-1.03-1.444-1.555-2.973-1.555m-.832 5.306c-.198.701-.505 1.283-.915 1.694-.252.251-.531.38-.806.471a2.3 2.3 0 0 1-.722.113c-.556 0-.775-.192-1-.638-.222-.446-.227-1.002-.028-1.694.273-.952.672-1.43.973-1.695.214-.189.658-.602 1.361-.639 1.058-.056 1.577.82 1.137 2.388" fill="#1551E5"/>
</svg>
